<?xml version="1.0" encoding="UTF-8"?>
<svg id="Layer_1" xmlns="http://www.w3.org/2000/svg" version="1.1" viewBox="0 0 1995.6 129.6">
  <!-- Generator: Adobe Illustrator 29.0.1, SVG Export Plug-In . SVG Version: 2.1.0 Build 192)  -->
  <defs>
    <style>
      .st0 {
        fill: #fff;
      }

      .st1 {
        fill: none;
      }
    </style>
  </defs>
  <path class="st1" d="M1358.1,36.9c-2.2-20.1-27.4-18.6-32.2-18.6h-10.1v41.5c4.3.2,7.6.2,11.9.2s33,.7,30.4-23.1h0ZM1176.9,17.7c-28.7,0-44.9,21.2-44.9,47.1s16.2,47.1,44.9,47.1,44.9-21.2,44.9-47.1-16.4-47.1-44.9-47.1h0ZM850.6,19h-10.8v44.3h12.7c11.4,0,34.8-1.1,33.5-23.5-.8-22.9-30.4-20.8-35.4-20.8ZM1489.8,23.1l-19.4,60.7,39.9-.2-20.3-60.5"/>
  <rect x="-.8" width="1996.4" height="129.6"/>
  <g>
    <path class="st0" d="M168.3,18.9l-20.8,91.8h-16.9l-13.1-62.5h-.2l-12.9,62.5h-17.2l-20.5-91.8h17l12.2,62.5h.2l13.4-62.5h15.9l13.2,63.2h.2l12.7-63.2h16.7Z"/>
    <path class="st0" d="M176.1,110.7V18.9h17v35.2h31.3V18.9h17v91.8h-17v-39.6h-31.3v39.6h-17Z"/>
    <path class="st0" d="M256.4,110.7V18.9h57.9v17h-40.9v19.7h37.5v15.7h-37.5v22.5h41.7v17h-58.7Z"/>
    <path class="st0" d="M326.7,110.7V18.9h41.7c6.8,0,12.3,2.5,16.6,7.5,4,4.8,6.1,10.8,6.1,17.9,0,11.4-4.1,19.1-12.2,23v.3c6.8,2.1,10.5,9.2,11.3,21.5.2,3.7.4,7.4.7,11.1.4,5,1.3,8.5,2.6,10.7h-17c-.8-2.3-1.4-5.8-1.8-10.4-.3-3.9-.6-7.7-.9-11.6-.6-5-1.8-8.5-3.7-10.7-1.9-2.1-5-3.2-9.2-3.2h-17v35.9h-17ZM343.7,34.6v25.8h18.6c7.8,0,11.7-4.4,11.7-13.1s-3.9-12.7-11.7-12.7h-18.6Z"/>
    <path class="st0" d="M404.9,110.7V18.9h57.9v17h-40.9v19.7h37.5v15.7h-37.5v22.5h41.7v17h-58.7Z"/>
    <path class="st0" d="M505.3,110.7V18.9h34.9c9,0,15.9,3,20.6,9.1,4.1,5.2,6.2,12,6.2,20.3s-2.1,15.1-6.2,20.3c-4.7,6.1-11.6,9.1-20.6,9.1h-17.9v32.9h-17ZM522.3,34.6v27.5h13.2c4.6,0,8.1-.8,10.4-2.4,3-2.2,4.6-6,4.6-11.3s-1.5-9.1-4.6-11.3c-2.3-1.6-5.8-2.4-10.4-2.4h-13.2Z"/>
    <path class="st0" d="M574.2,65.2c0-14.1,3.4-25.5,10.1-34.4,6.9-9.3,16.3-14,28-14s21,4.7,28,14c6.7,8.9,10.1,20.4,10.1,34.4s-3.4,25-10.1,33.8c-7,9.3-16.3,13.9-28,13.9s-21-4.6-28-13.9c-6.7-8.8-10.1-20.1-10.1-33.8ZM591.2,65.2c0,8.6,1.6,15.6,4.8,21.1,3.8,6.4,9.2,9.6,16.3,9.6s12.5-3.2,16.3-9.6c3.2-5.5,4.8-12.5,4.8-21.1s-1.6-16.2-4.8-21.7c-3.7-6.5-9.1-9.8-16.3-9.8s-12.6,3.3-16.3,9.8c-3.2,5.6-4.8,12.8-4.8,21.7Z"/>
    <path class="st0" d="M756.4,18.9l-20.8,91.8h-16.9l-13.1-62.5h-.2l-12.9,62.5h-17.2l-20.5-91.8h17l12.2,62.5h.2l13.4-62.5h15.9l13.2,63.2h.2l12.7-63.2h16.7Z"/>
    <path class="st0" d="M764.2,110.7V18.9h57.9v17h-40.9v19.7h37.5v15.7h-37.5v22.5h41.7v17h-58.7Z"/>
    <path class="st0" d="M834.5,110.7V18.9h41.7c6.8,0,12.3,2.5,16.6,7.5,4,4.8,6.1,10.8,6.1,17.9,0,11.4-4.1,19.1-12.2,23v.3c6.8,2.1,10.5,9.2,11.3,21.5.2,3.7.4,7.4.7,11.1.4,5,1.3,8.5,2.6,10.7h-17c-.8-2.3-1.4-5.8-1.8-10.4-.3-3.9-.6-7.7-.9-11.6-.6-5-1.8-8.5-3.7-10.7-1.9-2.1-5-3.2-9.2-3.2h-17v35.9h-17ZM851.5,34.6v25.8h18.6c7.8,0,11.7-4.4,11.7-13.1s-3.9-12.7-11.7-12.7h-18.6Z"/>
    <path class="st0" d="M942.9,110.7V18.9h24l18.1,63.1h.2l17.1-63.1h24v91.8h-15.9V45.6h-.2l-19,65h-13.1l-19-64.4h-.2v64.4h-15.9Z"/>
    <path class="st0" d="M1041.2,110.7V18.9h57.9v17h-40.9v19.7h37.5v15.7h-37.5v22.5h41.7v17h-58.7Z"/>
    <path class="st0" d="M1111.4,110.7V18.9h57.9v17h-40.9v19.7h37.5v15.7h-37.5v22.5h41.7v17h-58.7Z"/>
    <path class="st0" d="M1198.8,110.7V35.9h-23.2v-17h63.4v17h-23.2v74.8h-17Z"/>
    <path class="st0" d="M1243,80.2h16.5c0,5.7,1.7,10.1,5.2,13.1,3,2.6,6.9,3.9,11.9,3.9s7.2-.7,9.8-2.2c3.5-2,5.3-5.1,5.3-9.3s-4-9.2-11.9-11.8c-13.7-4.6-21.1-7.3-22.2-8-7.9-4.5-11.9-11.7-11.9-21.5s3.1-15.8,9.2-21c5.5-4.5,12.1-6.8,19.7-6.8s16.1,2.3,21.6,6.8c6.3,5.2,9.4,12.8,9.4,22.7h-16.5c-.4-9.3-5.5-13.9-15.3-13.9s-5.7.8-7.9,2.3c-2.5,1.9-3.8,4.6-3.8,8.1s1.4,5.8,4.2,7.3c2.2,1.2,8.5,3.4,18.9,6.6,6.1,1.8,10.6,3.9,13.5,6.2,6.3,4.8,9.4,11.7,9.4,20.6s-2.7,15.8-8.2,21.1c-5.8,5.6-13.8,8.4-24,8.4s-17-2.6-23-7.8c-6.7-5.9-10-14.2-10-24.8Z"/>
    <path class="st0" d="M1348.3,110.7V18.9h57.9v17h-40.9v19.7h37.5v15.7h-37.5v22.5h41.7v17h-58.7Z"/>
    <path class="st0" d="M1418.6,110.7V18.9h17v74.8h37.7v17h-54.7Z"/>
    <path class="st0" d="M1482.9,110.7V18.9h57.9v17h-40.9v19.7h37.5v15.7h-37.5v22.5h41.7v17h-58.7Z"/>
    <path class="st0" d="M1610.8,110.7l-1.7-10.4c-5.5,8.4-12.6,12.6-21.2,12.6s-21-4.6-28-13.9c-6.7-8.8-10.1-20.1-10.1-33.8s3.4-25.5,10.1-34.4c6.9-9.3,16.3-14,28-14s15.5,2.8,21.6,8.4c6.5,6,10.2,14,11.1,24h-16.3c-.9-5-2.9-8.8-5.8-11.4-2.9-2.7-6.4-4-10.6-4-7.2,0-12.6,3.3-16.3,9.8-3.2,5.6-4.8,12.8-4.8,21.7s1.6,15.6,4.8,21.1c3.8,6.4,9.2,9.6,16.3,9.6,11.3,0,17.4-6.6,18.4-19.8h-17.1v-15h32.5v49.6h-10.8Z"/>
    <path class="st0" d="M1627.1,110.7l29.4-91.8h17.5l28.9,91.8h-17.7l-5.9-20.4h-28.9l-6.1,20.4h-17.2ZM1665,41.5l-10.1,33.7h20.1l-9.8-33.7h-.2Z"/>
    <path class="st0" d="M1709.6,110.7V18.9h17l32.4,61.6V18.9h15.9v91.8h-17.1l-32.3-61.4v61.4h-15.9Z"/>
    <path class="st0" d="M1858,49.8h-16.5c-.5-4.5-2.4-8.4-5.6-11.4-3.3-3.1-7-4.6-11.3-4.6-7.2,0-12.6,3.3-16.3,9.8-3.2,5.6-4.8,12.8-4.8,21.7s1.6,15.6,4.8,21.1c3.8,6.4,9.2,9.6,16.3,9.6s9.1-1.9,12.2-5.8c2.9-3.6,4.7-8.5,5.3-14.8h16.5c-.9,11.4-4.4,20.5-10.6,27.3-6.2,6.8-14,10.2-23.5,10.2s-21-4.6-28-13.9c-6.7-8.8-10.1-20.1-10.1-33.8s3.4-25.5,10.1-34.4c6.9-9.3,16.3-14,28-14s16.3,2.9,22.3,8.6c6.4,6,10,14.1,11.1,24.4Z"/>
    <path class="st0" d="M1870.2,110.7V18.9h57.9v17h-40.9v19.7h37.5v15.7h-37.5v22.5h41.7v17h-58.7Z"/>
  </g>
</svg>