<?xml version="1.0" encoding="UTF-8"?>
<svg id="Layer_1" xmlns="http://www.w3.org/2000/svg" version="1.1" viewBox="0 0 1000 129.6">
  <!-- Generator: Adobe Illustrator 29.0.1, SVG Export Plug-In . SVG Version: 2.1.0 Build 192)  -->
  <defs>
    <style>
      .st0 {
        fill: #fff;
      }
    </style>
  </defs>
  <rect y="0" width="1000" height="129.6"/>
  <g>
    <path class="st0" d="M86.9,17.3l-31.5,95h-23.5L1,17.3h21.6l21.2,66.8h.3l21.4-66.8h21.6Z"/>
    <path class="st0" d="M95.1,112.3V17.3h71v17.6h-50.2v20.4h46v16.2h-46v23.3h51.2v17.6h-72.1Z"/>
    <path class="st0" d="M181.3,112.3V17.3h20.9v77.4h46.3v17.6h-67.2Z"/>
    <path class="st0" d="M256,65.2c0-14.5,4.1-26.4,12.4-35.7,8.5-9.7,20-14.5,34.3-14.5s25.8,4.8,34.3,14.5c8.2,9.2,12.4,21.1,12.4,35.7s-4.1,25.9-12.4,35c-8.6,9.6-20,14.4-34.3,14.4s-25.7-4.8-34.3-14.4c-8.2-9.1-12.4-20.8-12.4-35ZM276.9,65.2c0,8.9,1.9,16.1,5.9,21.8,4.6,6.7,11.3,10,20,10s15.3-3.3,20-10c3.9-5.7,5.9-12.9,5.9-21.8s-2-16.7-5.9-22.5c-4.5-6.7-11.2-10.1-20-10.1s-15.4,3.4-20,10.1c-3.9,5.8-5.9,13.3-5.9,22.5Z"/>
    <path class="st0" d="M353.7,112.3l33.3-49.8-30.6-45.2h24.2l18.6,30.3,19.3-30.3h22.9l-30.5,45.4,33.1,49.6h-24.9l-20.8-32.9-21.2,32.9h-23.5Z"/>
    <path class="st0" d="M489.4,112.3V17.3h44.7c20.2,0,30.3,7.8,30.3,23.5s-4.3,15.7-12.9,19.8c11.6,3.4,17.4,11.4,17.4,24.1s-3.5,16.1-10.4,21c-6,4.3-13.8,6.5-23.2,6.5h-46ZM510.3,33.5v22.2h21.2c8.5,0,12.8-3.8,12.8-11.3s-4.8-10.9-14.4-10.9h-19.6ZM510.3,70v26.1h22.4c10.3,0,15.4-4.2,15.4-12.5s-5-13.6-15-13.6h-22.8Z"/>
    <path class="st0" d="M579,65.2c0-14.5,4.1-26.4,12.4-35.7,8.5-9.7,20-14.5,34.3-14.5s25.8,4.8,34.3,14.5c8.2,9.2,12.4,21.1,12.4,35.7s-4.1,25.9-12.4,35c-8.6,9.6-20,14.4-34.3,14.4s-25.7-4.8-34.3-14.4c-8.2-9.1-12.4-20.8-12.4-35ZM599.8,65.2c0,8.9,2,16.1,5.9,21.8,4.6,6.7,11.3,10,20,10s15.3-3.3,20-10c3.9-5.7,5.9-12.9,5.9-21.8s-2-16.7-5.9-22.5c-4.5-6.7-11.2-10.1-20-10.1s-15.4,3.4-20,10.1c-3.9,5.8-5.9,13.3-5.9,22.5Z"/>
    <path class="st0" d="M676.6,112.3l33.3-49.8-30.6-45.2h24.2l18.6,30.3,19.3-30.3h22.9l-30.5,45.4,33.1,49.6h-24.9l-20.8-32.9-21.2,32.9h-23.5Z"/>
    <path class="st0" d="M775.3,112.3V17.3h20.9v95h-20.9Z"/>
    <path class="st0" d="M814.6,112.3V17.3h20.8l39.8,63.7V17.3h19.6v95h-21l-39.7-63.6v63.6h-19.6Z"/>
    <path class="st0" d="M984,112.3l-2.1-10.8c-6.7,8.7-15.4,13-26.1,13s-25.7-4.8-34.3-14.4c-8.2-9.1-12.4-20.8-12.4-35s4.1-26.4,12.4-35.7c8.5-9.7,20-14.5,34.3-14.5s19,2.9,26.5,8.6c8,6.2,12.5,14.5,13.6,24.9h-20c-1.2-5.1-3.5-9.1-7.1-11.8-3.6-2.7-7.9-4.1-13-4.1-8.8,0-15.4,3.4-20,10.1-3.9,5.8-5.9,13.3-5.9,22.5s2,16.1,5.9,21.8c4.6,6.7,11.3,10,20,10,13.8,0,21.4-6.8,22.6-20.5h-21v-15.6h39.9v51.4h-13.3Z"/>
  </g>
</svg>